<?xml version="1.0" encoding="UTF-8" standalone="no"?>
<!-- Created with Inkscape (http://www.inkscape.org/) -->

<svg
        xmlns:dc="http://purl.org/dc/elements/1.1/"
        xmlns:cc="http://creativecommons.org/ns#"
        xmlns:rdf="http://www.w3.org/1999/02/22-rdf-syntax-ns#"
        xmlns="http://www.w3.org/2000/svg"
        xmlns:sodipodi="http://sodipodi.sourceforge.net/DTD/sodipodi-0.dtd"
        xmlns:inkscape="http://www.inkscape.org/namespaces/inkscape"
        width="500mm"
        height="500mm"
        viewBox="0 0 500 500"
        version="1.1"
        id="svg8"
        inkscape:version="0.92.4 (5da689c313, 2019-01-14)"
        sodipodi:docname="logo.svg"
        inkscape:export-filename="C:\Users\xroix\Desktop\Coding\Programming\Python\Other\FOV-Changer\res\logo-full.png"
        inkscape:export-xdpi="101.6"
        inkscape:export-ydpi="101.6">
  <defs
     id="defs2">
    <filter
       inkscape:collect="always"
       style="color-interpolation-filters:sRGB"
       id="filter1835"
       x="-0.014452248"
       width="1.0289045"
       y="-0.014348129"
       height="1.0286963">
      <feGaussianBlur
         inkscape:collect="always"
         stdDeviation="11.854289"
         id="feGaussianBlur1837" />
    </filter>
    <filter
       inkscape:collect="always"
       style="color-interpolation-filters:sRGB"
       id="filter6368"
       x="-0.051281223"
       width="1.1025624"
       y="-0.030330537"
       height="1.0606611">
      <feGaussianBlur
         inkscape:collect="always"
         stdDeviation="3.1188633"
         id="feGaussianBlur6370" />
    </filter>
    <filter
       inkscape:collect="always"
       style="color-interpolation-filters:sRGB"
       id="filter6372"
       x="-0.073893267"
       width="1.1477865"
       y="-0.027735219"
       height="1.0554704">
      <feGaussianBlur
         inkscape:collect="always"
         stdDeviation="3.1188633"
         id="feGaussianBlur6374" />
    </filter>
    <filter
       inkscape:collect="always"
       style="color-interpolation-filters:sRGB"
       id="filter6376"
       x="-0.073571147"
       width="1.1471423"
       y="-0.35005045"
       height="1.7001009">
      <feGaussianBlur
         inkscape:collect="always"
         stdDeviation="3.1188633"
         id="feGaussianBlur6378" />
    </filter>
    <filter
       inkscape:collect="always"
       style="color-interpolation-filters:sRGB"
       id="filter6380">
      <feGaussianBlur
         inkscape:collect="always"
         stdDeviation="3.1188633"
         id="feGaussianBlur6382" />
    </filter>
    <filter
       inkscape:collect="always"
       style="color-interpolation-filters:sRGB"
       id="filter6501"
       x="-0.054908701"
       width="1.1098174"
       y="-0.057974567"
       height="1.1159491">
      <feGaussianBlur
         inkscape:collect="always"
         stdDeviation="10.264191"
         id="feGaussianBlur6503" />
    </filter>
  </defs>
  <sodipodi:namedview
     id="base"
     pagecolor="#ffffff"
     bordercolor="#666666"
     borderopacity="1.0"
     inkscape:pageopacity="0.0"
     inkscape:pageshadow="2"
     inkscape:zoom="0.175"
     inkscape:cx="-1025.1528"
     inkscape:cy="1140.6509"
     inkscape:document-units="mm"
     inkscape:current-layer="layer1"
     showgrid="false"
     borderlayer="true"
     inkscape:showpageshadow="false"
     inkscape:snap-object-midpoints="true"
     inkscape:snap-center="true"
     inkscape:window-width="2560"
     inkscape:window-height="1377"
     inkscape:window-x="-8"
     inkscape:window-y="-8"
     inkscape:window-maximized="1" />
  <metadata
     id="metadata5">
    <rdf:RDF>
      <cc:Work
         rdf:about="">
        <dc:format>image/svg+xml</dc:format>
        <dc:type
           rdf:resource="http://purl.org/dc/dcmitype/StillImage" />
        <dc:title />
      </cc:Work>
    </rdf:RDF>
  </metadata>
  <g
     inkscape:label="foreground"
     inkscape:groupmode="layer"
     id="layer1"
     transform="translate(0,203)"
     style="display:inline">
    <path
       inkscape:connector-curvature="0"
       id="path6391"
       d="m 250.00028,-165.45573 a 224.31836,212.45567 0 0 0 -15.86789,0.53226 224.31836,212.45567 0 0 0 -22.25934,2.5591 224.31836,212.45567 0 0 0 -21.878,4.65111 224.31836,212.45567 0 0 0 -21.27868,6.69619 224.31836,212.45567 0 0 0 -20.46644,8.67501 224.31836,212.45567 0 0 0 -19.44974,10.56659 224.31836,212.45567 0 0 0 -18.2387,12.35328 224.31836,212.45567 0 0 0 -16.845738,14.01573 224.31836,212.45567 0 0 0 -15.283787,15.539054 224.31836,212.45567 0 0 0 -13.569754,16.906109 224.31836,212.45567 0 0 0 -11.719977,18.104774 224.31836,212.45567 0 0 0 -9.753033,19.122343 224.31836,212.45567 0 0 0 -7.688644,19.949428 224.31836,212.45567 0 0 0 -5.547654,20.5760916 224.31836,212.45567 0 0 0 -3.350335,20.9984684 224.31836,212.45567 0 0 0 -1.120909,21.210485 224.31836,212.45567 0 0 0 0.562145,15.028327 224.31836,212.45567 0 0 0 2.702009,21.081842 224.31836,212.45567 0 0 0 4.910596,20.721288 224.31836,212.45567 0 0 0 7.070173,20.15316 224.31836,212.45567 0 0 0 9.159347,19.38405 224.31836,212.45567 0 0 0 11.156701,18.42115 224.31836,212.45567 0 0 0 13.042535,17.27437 224.31836,212.45567 0 0 0 14.798814,15.95478 224.31836,212.45567 0 0 0 16.406381,14.47567 224.31836,212.45567 0 0 0 17.85005,12.85238 224.31836,212.45567 0 0 0 19.11572,11.09995 224.31836,212.45567 0 0 0 20.19044,9.23764 224.31836,212.45567 0 0 0 21.06294,7.28198 224.31836,212.45567 0 0 0 21.72536,5.25405 224.31836,212.45567 0 0 0 22.1709,3.1736 224.31836,212.45567 0 0 0 22.39451,1.06119 224.31836,212.45567 0 0 0 15.86734,-0.53225 224.31836,212.45567 0 0 0 22.25932,-2.5591 224.31836,212.45567 0 0 0 21.87802,-4.6511 224.31836,212.45567 0 0 0 21.27868,-6.69619 224.31836,212.45567 0 0 0 20.46644,-8.67501 224.31836,212.45567 0 0 0 19.44974,-10.56659 224.31836,212.45567 0 0 0 18.23871,-12.35327 224.31836,212.45567 0 0 0 16.84574,-14.01573 224.31836,212.45567 0 0 0 15.28379,-15.53849 224.31836,212.45567 0 0 0 13.56974,-16.90668 224.31836,212.45567 0 0 0 11.71998,-18.10477 224.31836,212.45567 0 0 0 9.75302,-19.12233 224.31836,212.45567 0 0 0 7.68866,-19.94943 224.31836,212.45567 0 0 0 5.54764,-20.576073 224.31836,212.45567 0 0 0 3.35092,-20.998483 224.31836,212.45567 0 0 0 1.12032,-21.209931 224.31836,212.45567 0 0 0 -0.56213,-15.028878 224.31836,212.45567 0 0 0 -2.70145,-21.081839 224.31836,212.45567 0 0 0 -4.91116,-20.7213006 224.31836,212.45567 0 0 0 -7.07017,-20.1531644 224.31836,212.45567 0 0 0 -9.15936,-19.38405 224.31836,212.45567 0 0 0 -11.15669,-18.421143 224.31836,212.45567 0 0 0 -13.04253,-17.274378 224.31836,212.45567 0 0 0 -14.79882,-15.95481 224.31836,212.45567 0 0 0 -16.4064,-14.47565 224.31836,212.45567 0 0 0 -17.85004,-12.85239 224.31836,212.45567 0 0 0 -19.11572,-11.09995 224.31836,212.45567 0 0 0 -20.19045,-9.23707 224.31836,212.45567 0 0 0 -21.06293,-7.28255 224.31836,212.45567 0 0 0 -21.72534,-5.25404 224.31836,212.45567 0 0 0 -22.17091,-3.17307 224.31836,212.45567 0 0 0 -22.39396,-1.06174 z"
       style="fill:#dfdfdf;fill-opacity:1;stroke:none;stroke-width:0.42286962;stroke-linecap:round;stroke-linejoin:round;stroke-miterlimit:4;stroke-dasharray:none;stroke-opacity:1;paint-order:normal;filter:url(#filter6501)" />
    <path
       style="fill:#e0e0e0;fill-opacity:1;stroke:none;stroke-width:0.42286962;stroke-linecap:round;stroke-linejoin:round;stroke-miterlimit:4;stroke-dasharray:none;stroke-opacity:1;paint-order:normal"
       d="m 250.00028,-165.45573 a 224.31836,212.45567 0 0 0 -15.86789,0.53226 224.31836,212.45567 0 0 0 -22.25934,2.5591 224.31836,212.45567 0 0 0 -21.878,4.65111 224.31836,212.45567 0 0 0 -21.27868,6.69619 224.31836,212.45567 0 0 0 -20.46644,8.67501 224.31836,212.45567 0 0 0 -19.44974,10.56659 224.31836,212.45567 0 0 0 -18.2387,12.35328 224.31836,212.45567 0 0 0 -16.845738,14.01573 224.31836,212.45567 0 0 0 -15.283787,15.539054 224.31836,212.45567 0 0 0 -13.569754,16.906109 224.31836,212.45567 0 0 0 -11.719977,18.104774 224.31836,212.45567 0 0 0 -9.753033,19.122343 224.31836,212.45567 0 0 0 -7.688644,19.949428 224.31836,212.45567 0 0 0 -5.547654,20.5760916 224.31836,212.45567 0 0 0 -3.350335,20.9984684 224.31836,212.45567 0 0 0 -1.120909,21.210485 224.31836,212.45567 0 0 0 0.562145,15.028327 224.31836,212.45567 0 0 0 2.702009,21.081842 224.31836,212.45567 0 0 0 4.910596,20.721288 224.31836,212.45567 0 0 0 7.070173,20.15316 224.31836,212.45567 0 0 0 9.159347,19.38405 224.31836,212.45567 0 0 0 11.156701,18.42115 224.31836,212.45567 0 0 0 13.042535,17.27437 224.31836,212.45567 0 0 0 14.798814,15.95478 224.31836,212.45567 0 0 0 16.406381,14.47567 224.31836,212.45567 0 0 0 17.85005,12.85238 224.31836,212.45567 0 0 0 19.11572,11.09995 224.31836,212.45567 0 0 0 20.19044,9.23764 224.31836,212.45567 0 0 0 21.06294,7.28198 224.31836,212.45567 0 0 0 21.72536,5.25405 224.31836,212.45567 0 0 0 22.1709,3.1736 224.31836,212.45567 0 0 0 22.39451,1.06119 224.31836,212.45567 0 0 0 15.86734,-0.53225 224.31836,212.45567 0 0 0 22.25932,-2.5591 224.31836,212.45567 0 0 0 21.87802,-4.6511 224.31836,212.45567 0 0 0 21.27868,-6.69619 224.31836,212.45567 0 0 0 20.46644,-8.67501 224.31836,212.45567 0 0 0 19.44974,-10.56659 224.31836,212.45567 0 0 0 18.23871,-12.35327 224.31836,212.45567 0 0 0 16.84574,-14.01573 224.31836,212.45567 0 0 0 15.28379,-15.53849 224.31836,212.45567 0 0 0 13.56974,-16.90668 224.31836,212.45567 0 0 0 11.71998,-18.10477 224.31836,212.45567 0 0 0 9.75302,-19.12233 224.31836,212.45567 0 0 0 7.68866,-19.94943 224.31836,212.45567 0 0 0 5.54764,-20.576073 224.31836,212.45567 0 0 0 3.35092,-20.998483 224.31836,212.45567 0 0 0 1.12032,-21.209931 224.31836,212.45567 0 0 0 -0.56213,-15.028878 224.31836,212.45567 0 0 0 -2.70145,-21.081839 224.31836,212.45567 0 0 0 -4.91116,-20.7213006 224.31836,212.45567 0 0 0 -7.07017,-20.1531644 224.31836,212.45567 0 0 0 -9.15936,-19.38405 224.31836,212.45567 0 0 0 -11.15669,-18.421143 224.31836,212.45567 0 0 0 -13.04253,-17.274378 224.31836,212.45567 0 0 0 -14.79882,-15.95481 224.31836,212.45567 0 0 0 -16.4064,-14.47565 224.31836,212.45567 0 0 0 -17.85004,-12.85239 224.31836,212.45567 0 0 0 -19.11572,-11.09995 224.31836,212.45567 0 0 0 -20.19045,-9.23707 224.31836,212.45567 0 0 0 -21.06293,-7.28255 224.31836,212.45567 0 0 0 -21.72534,-5.25404 224.31836,212.45567 0 0 0 -22.17091,-3.17307 224.31836,212.45567 0 0 0 -22.39396,-1.06174 z"
       id="path1387"
       inkscape:connector-curvature="0" />
    <path
       sodipodi:nodetypes="cccccc"
       inkscape:connector-curvature="0"
       id="path1848"
       d="M 325.61534,-40.813668 H 179.66867 V 184.59289 m 21.4852,0 V -62.197069 h 124.47996"
       style="fill:none;fill-opacity:1;stroke:#334e58;stroke-width:10.60499954;stroke-linecap:butt;stroke-linejoin:round;stroke-miterlimit:4;stroke-dasharray:none;stroke-opacity:0.70096465;filter:url(#filter6368)" />
    <path
       sodipodi:nodetypes="ccc"
       inkscape:connector-curvature="0"
       id="path1850"
       d="M 224.28761,184.59289 V -85.29039 h 101.29843"
       style="fill:none;fill-opacity:1;stroke:#334e58;stroke-width:10.60499954;stroke-linecap:butt;stroke-linejoin:round;stroke-miterlimit:4;stroke-dasharray:none;stroke-opacity:0.70096465;filter:url(#filter6372)" />
    <path
       style="fill:none;fill-opacity:1;stroke:#334e58;stroke-width:10.60499954;stroke-linecap:butt;stroke-linejoin:round;stroke-miterlimit:4;stroke-dasharray:none;stroke-opacity:0.70096465;filter:url(#filter6376)"
       d="M 302.89033,53.404748 H 201.16687 m 0.31854,-21.383409 h 101.42341"
       id="path1852"
       inkscape:connector-curvature="0"
       sodipodi:nodetypes="cccc" />
    <path
       style="fill:none;fill-opacity:1;stroke:#3a606e;stroke-width:10.60499954;stroke-linecap:butt;stroke-linejoin:round;stroke-miterlimit:4;stroke-dasharray:none;stroke-opacity:1"
       d="M 325.61534,-40.813668 H 179.66867 V 184.59289 m 21.4852,0 V -62.197069 h 124.47996"
       id="path1839"
       inkscape:connector-curvature="0"
       sodipodi:nodetypes="cccccc" />
    <path
       style="fill:none;fill-opacity:1;stroke:#334e58;stroke-width:10.60499954;stroke-linecap:butt;stroke-linejoin:round;stroke-miterlimit:4;stroke-dasharray:none;stroke-opacity:0.70096465;filter:url(#filter6380)"
       d="M 201.5626,8.9280188 H 302.86103"
       id="path1854"
       inkscape:connector-curvature="0"
       sodipodi:nodetypes="cc" />
    <path
       style="fill:none;fill-opacity:1;stroke:#3a606e;stroke-width:10.60499954;stroke-linecap:butt;stroke-linejoin:round;stroke-miterlimit:4;stroke-dasharray:none;stroke-opacity:1"
       d="M 224.28761,184.59289 V -85.29039 h 101.29843"
       id="path1841"
       inkscape:connector-curvature="0"
       sodipodi:nodetypes="ccc" />
    <path
       sodipodi:nodetypes="cccc"
       inkscape:connector-curvature="0"
       id="path1844"
       d="M 302.89033,53.404748 H 201.16687 m 0.31854,-21.383409 h 101.42341"
       style="fill:none;fill-opacity:1;stroke:#3a606e;stroke-width:10.60499954;stroke-linecap:butt;stroke-linejoin:round;stroke-miterlimit:4;stroke-dasharray:none;stroke-opacity:1" />
    <path
       sodipodi:nodetypes="cc"
       inkscape:connector-curvature="0"
       id="path1846"
       d="M 201.5626,8.9280188 H 302.86103"
       style="fill:none;fill-opacity:1;stroke:#3a606e;stroke-width:10.60499954;stroke-linecap:butt;stroke-linejoin:round;stroke-miterlimit:4;stroke-dasharray:none;stroke-opacity:1" />
  </g>
  <g
     inkscape:groupmode="layer"
     id="layer2"
     inkscape:label="background"
     style="display:inline">
    <path
       id="path1389"
       d="M -42.857422,-30.236328 V 1952.6211 H 1925.7148 V -30.236328 Z M 944.88281,193.32812 a 777.81744,751.5535 0 0 1 77.65039,3.75586 777.81744,751.5535 0 0 1 76.877,11.22461 777.81744,751.5535 0 0 1 75.332,18.58594 777.81744,751.5535 0 0 1 73.0351,25.76172 777.81744,751.5535 0 0 1 70.0098,32.67578 777.81744,751.5535 0 0 1 66.2832,39.26563 777.81744,751.5535 0 0 1 61.8945,45.46484 777.81744,751.5535 0 0 1 56.8887,51.20703 777.81744,751.5535 0 0 1 51.3145,56.43945 777.81744,751.5535 0 0 1 45.2246,61.10743 777.81744,751.5535 0 0 1 38.6855,65.16406 777.81744,751.5535 0 0 1 31.7598,68.57031 777.81744,751.5535 0 0 1 24.5156,71.29102 777.81744,751.5535 0 0 1 17.0293,73.30078 777.81744,751.5535 0 0 1 9.3672,74.57617 777.81744,751.5535 0 0 1 1.9492,53.16406 777.81744,751.5535 0 0 1 -3.8847,75.02929 777.81744,751.5535 0 0 1 -11.6192,74.2813 777.81744,751.5535 0 0 1 -19.2363,72.7871 777.81744,751.5535 0 0 1 -26.6602,70.5703 777.81744,751.5535 0 0 1 -33.8183,67.6445 777.81744,751.5535 0 0 1 -40.6387,64.0449 777.81744,751.5535 0 0 1 -47.0527,59.8067 777.81744,751.5535 0 0 1 -52.9961,54.9668 777.81744,751.5535 0 0 1 -58.4121,49.5801 777.81744,751.5535 0 0 1 -63.2422,43.6992 777.81744,751.5535 0 0 1 -67.4414,37.3789 777.81744,751.5535 0 0 1 -70.9668,30.6875 777.81744,751.5535 0 0 1 -73.7832,23.6875 777.81744,751.5535 0 0 1 -75.8614,16.4531 777.81744,751.5535 0 0 1 -77.18356,9.0527 777.81744,751.5535 0 0 1 -55.01953,1.8828 777.81744,751.5535 0 0 1 -77.65234,-3.7539 777.81744,751.5535 0 0 1 -76.87695,-11.2265 777.81744,751.5535 0 0 1 -75.33204,-18.586 777.81744,751.5535 0 0 1 -73.03515,-25.7597 777.81744,751.5535 0 0 1 -70.00977,-32.6778 777.81744,751.5535 0 0 1 -66.2832,-39.2656 777.81744,751.5535 0 0 1 -61.89453,-45.4648 777.81744,751.5535 0 0 1 -56.88867,-51.2071 777.81744,751.5535 0 0 1 -51.31446,-56.4394 777.81744,751.5535 0 0 1 -45.22461,-61.1074 777.81744,751.5535 0 0 1 -38.68554,-65.1641 777.81744,751.5535 0 0 1 -31.75977,-68.5703 777.81744,751.5535 0 0 1 -24.51562,-71.291 777.81744,751.5535 0 0 1 -17.02735,-73.3008 777.81744,751.5535 0 0 1 -9.36914,-74.57618 777.81744,751.5535 0 0 1 -1.94922,-53.16211 777.81744,751.5535 0 0 1 3.88672,-75.03125 777.81744,751.5535 0 0 1 11.61719,-74.28125 777.81744,751.5535 0 0 1 19.23633,-72.78711 777.81744,751.5535 0 0 1 26.66015,-70.57031 777.81744,751.5535 0 0 1 33.81836,-67.64453 777.81744,751.5535 0 0 1 40.63868,-64.04492 777.81744,751.5535 0 0 1 47.05273,-59.80469 777.81744,751.5535 0 0 1 52.99609,-54.96875 777.81744,751.5535 0 0 1 58.41211,-49.58008 777.81744,751.5535 0 0 1 63.24219,-43.69922 777.81744,751.5535 0 0 1 67.44141,-37.3789 777.81744,751.5535 0 0 1 70.96679,-30.6875 777.81744,751.5535 0 0 1 73.78321,-23.6875 777.81744,751.5535 0 0 1 75.86132,-16.45313 777.81744,751.5535 0 0 1 77.1836,-9.05273 777.81744,751.5535 0 0 1 55.02148,-1.88282 z"
       style="fill:#2b3e45;fill-opacity:1;stroke:none;stroke-width:1.48101246;stroke-linecap:round;stroke-linejoin:round;stroke-miterlimit:4;stroke-dasharray:none;stroke-opacity:1;paint-order:normal;filter:url(#filter1835)"
       transform="scale(0.26458333)"
       inkscape:connector-curvature="0" />
    <path
       style="fill:#3a606e;fill-opacity:1;stroke:none;stroke-width:1.48101246;stroke-linecap:round;stroke-linejoin:round;stroke-miterlimit:4;stroke-dasharray:none;stroke-opacity:1;paint-order:normal"
       d="M -42.857422,-30.236328 V 1952.6211 H 1925.7148 V -30.236328 Z M 944.88281,193.32812 a 777.81744,751.5535 0 0 1 77.65039,3.75586 777.81744,751.5535 0 0 1 76.877,11.22461 777.81744,751.5535 0 0 1 75.332,18.58594 777.81744,751.5535 0 0 1 73.0351,25.76172 777.81744,751.5535 0 0 1 70.0098,32.67578 777.81744,751.5535 0 0 1 66.2832,39.26563 777.81744,751.5535 0 0 1 61.8945,45.46484 777.81744,751.5535 0 0 1 56.8887,51.20703 777.81744,751.5535 0 0 1 51.3145,56.43945 777.81744,751.5535 0 0 1 45.2246,61.10743 777.81744,751.5535 0 0 1 38.6855,65.16406 777.81744,751.5535 0 0 1 31.7598,68.57031 777.81744,751.5535 0 0 1 24.5156,71.29102 777.81744,751.5535 0 0 1 17.0293,73.30078 777.81744,751.5535 0 0 1 9.3672,74.57617 777.81744,751.5535 0 0 1 1.9492,53.16406 777.81744,751.5535 0 0 1 -3.8847,75.02929 777.81744,751.5535 0 0 1 -11.6192,74.2813 777.81744,751.5535 0 0 1 -19.2363,72.7871 777.81744,751.5535 0 0 1 -26.6602,70.5703 777.81744,751.5535 0 0 1 -33.8183,67.6445 777.81744,751.5535 0 0 1 -40.6387,64.0449 777.81744,751.5535 0 0 1 -47.0527,59.8067 777.81744,751.5535 0 0 1 -52.9961,54.9668 777.81744,751.5535 0 0 1 -58.4121,49.5801 777.81744,751.5535 0 0 1 -63.2422,43.6992 777.81744,751.5535 0 0 1 -67.4414,37.3789 777.81744,751.5535 0 0 1 -70.9668,30.6875 777.81744,751.5535 0 0 1 -73.7832,23.6875 777.81744,751.5535 0 0 1 -75.8614,16.4531 777.81744,751.5535 0 0 1 -77.18356,9.0527 777.81744,751.5535 0 0 1 -55.01953,1.8828 777.81744,751.5535 0 0 1 -77.65234,-3.7539 777.81744,751.5535 0 0 1 -76.87695,-11.2265 777.81744,751.5535 0 0 1 -75.33204,-18.586 777.81744,751.5535 0 0 1 -73.03515,-25.7597 777.81744,751.5535 0 0 1 -70.00977,-32.6778 777.81744,751.5535 0 0 1 -66.2832,-39.2656 777.81744,751.5535 0 0 1 -61.89453,-45.4648 777.81744,751.5535 0 0 1 -56.88867,-51.2071 777.81744,751.5535 0 0 1 -51.31446,-56.4394 777.81744,751.5535 0 0 1 -45.22461,-61.1074 777.81744,751.5535 0 0 1 -38.68554,-65.1641 777.81744,751.5535 0 0 1 -31.75977,-68.5703 777.81744,751.5535 0 0 1 -24.51562,-71.291 777.81744,751.5535 0 0 1 -17.02735,-73.3008 777.81744,751.5535 0 0 1 -9.36914,-74.57618 777.81744,751.5535 0 0 1 -1.94922,-53.16211 777.81744,751.5535 0 0 1 3.88672,-75.03125 777.81744,751.5535 0 0 1 11.61719,-74.28125 777.81744,751.5535 0 0 1 19.23633,-72.78711 777.81744,751.5535 0 0 1 26.66015,-70.57031 777.81744,751.5535 0 0 1 33.81836,-67.64453 777.81744,751.5535 0 0 1 40.63868,-64.04492 777.81744,751.5535 0 0 1 47.05273,-59.80469 777.81744,751.5535 0 0 1 52.99609,-54.96875 777.81744,751.5535 0 0 1 58.41211,-49.58008 777.81744,751.5535 0 0 1 63.24219,-43.69922 777.81744,751.5535 0 0 1 67.44141,-37.3789 777.81744,751.5535 0 0 1 70.96679,-30.6875 777.81744,751.5535 0 0 1 73.78321,-23.6875 777.81744,751.5535 0 0 1 75.86132,-16.45313 777.81744,751.5535 0 0 1 77.1836,-9.05273 777.81744,751.5535 0 0 1 55.02148,-1.88282 z"
       id="rect1366"
       transform="scale(0.26458333)"
       inkscape:connector-curvature="0" />
  </g>
</svg>
